<svg width="32" height="32" viewBox="0 0 32 32" fill="none" xmlns="http://www.w3.org/2000/svg">
<path d="M15.9992 16.0001C15.9992 19.5351 13.1336 22.3998 9.59922 22.3998C6.06578 22.3998 3.19922 19.5351 3.19922 16.0001C3.19922 12.4657 6.06578 9.6001 9.59922 9.6001C13.1336 9.6001 15.9992 12.4657 15.9992 16.0001Z" fill="#01BBD1"/>
<path d="M17.6004 28.7997C19.3677 28.7997 20.8004 27.367 20.8004 25.5997C20.8004 23.8323 19.3677 22.3997 17.6004 22.3997C15.8331 22.3997 14.4004 23.8323 14.4004 25.5997C14.4004 27.367 15.8331 28.7997 17.6004 28.7997Z" fill="#01BBD1"/>
<path d="M28.8002 24.533C27.621 24.533 26.6668 25.4892 26.6668 26.6661H25.6002C25.6002 25.4892 24.6441 24.533 23.4668 24.533V23.4661C24.6463 23.4661 25.6002 22.51 25.6002 21.333H26.6668C26.6668 22.51 27.623 23.4661 28.8002 23.4661V24.533Z" fill="#01BBD1"/>
<path d="M10.6662 26.6663C11.2552 26.6663 11.7327 26.1888 11.7327 25.5998C11.7327 25.0107 11.2552 24.5332 10.6662 24.5332C10.0771 24.5332 9.59961 25.0107 9.59961 25.5998C9.59961 26.1888 10.0771 26.6663 10.6662 26.6663Z" fill="#01BBD1"/>
<path d="M4.26578 9.59992C4.85482 9.59992 5.33234 9.1224 5.33234 8.53336C5.33234 7.94431 4.85482 7.4668 4.26578 7.4668C3.67673 7.4668 3.19922 7.94431 3.19922 8.53336C3.19922 9.1224 3.67673 9.59992 4.26578 9.59992Z" fill="#01BBD1"/>
<path d="M10.1332 7.46685C11.0169 7.46685 11.7332 6.7505 11.7332 5.86685C11.7332 4.98319 11.0169 4.26685 10.1332 4.26685C9.24955 4.26685 8.5332 4.98319 8.5332 5.86685C8.5332 6.7505 9.24955 7.46685 10.1332 7.46685Z" fill="#01BBD1"/>
<path d="M7.46562 27.1996C7.46562 28.085 6.74915 28.7996 5.86562 28.7996C4.98242 28.7996 4.26562 28.085 4.26562 27.1996C4.26562 26.3161 4.98242 25.5996 5.86562 25.5996C6.74915 25.5996 7.46562 26.3161 7.46562 27.1996Z" fill="#01BBD1"/>
<path d="M20.2667 3.20044C16.8875 3.20044 13.9762 5.17004 12.5938 8.019C15.8251 9.23564 18.1336 12.3492 18.1336 16.0001C18.1336 17.3326 17.819 18.5899 17.2712 19.7144C18.2043 20.0664 19.2107 20.2664 20.2667 20.2664C24.9794 20.2664 28.8001 16.4462 28.8001 11.7336C28.8001 7.02092 24.9794 3.20044 20.2667 3.20044ZM24.5336 11.7336C24.5336 9.37644 22.6251 7.467 20.2667 7.467V5.33356C23.8024 5.33356 26.6667 8.1982 26.6667 11.7336H24.5336Z" fill="#01BBD1"/>
</svg>
