<svg width="33" height="33" viewBox="0 0 33 33" fill="none" xmlns="http://www.w3.org/2000/svg">
<g clip-path="url(#clip0_247_1134)">
<path d="M7.49933 15.4659C7.74254 15.4656 7.97336 15.3583 8.13016 15.1725C8.28697 14.9867 8.35373 14.7411 8.31295 14.5015L7.89904 12.0903L9.65044 10.3824C9.87552 10.1636 9.9571 9.83582 9.86012 9.53732C9.76344 9.23852 9.50512 9.02069 9.19454 8.97567L6.77273 8.6237L5.68962 6.4303C5.53554 6.16836 5.25426 6.00732 4.95003 6.00732C4.64609 6.00732 4.36482 6.16836 4.21043 6.4303L3.12762 8.6234L0.705813 8.97537C0.395232 9.02039 0.136917 9.23822 0.0402379 9.53672C-0.0567433 9.83551 0.0248297 10.1633 0.249911 10.3821L2.00131 12.0896L1.58741 14.5012C1.53423 14.8106 1.66173 15.1233 1.91581 15.3079C2.1699 15.4921 2.50646 15.5166 2.78441 15.3704L4.95003 14.2332L7.11564 15.3707C7.23407 15.4332 7.36549 15.4659 7.49933 15.4659Z" fill="#01BBD1"/>
<path d="M19.0482 15.4659C19.2914 15.4656 19.5222 15.3583 19.679 15.1725C19.8358 14.9867 19.9026 14.7411 19.8621 14.5015L19.4479 12.0903L21.1993 10.3824C21.4247 10.1636 21.5059 9.83582 21.4092 9.53702C21.3123 9.23852 21.0539 9.02069 20.7434 8.97567L18.3216 8.6237L17.2387 6.4303C17.0847 6.16805 16.8031 6.00732 16.4992 6.00732C16.1949 6.00732 15.9136 6.16805 15.7596 6.4303L14.6768 8.6234L12.2549 8.97537C11.9441 9.02039 11.686 9.23822 11.5891 9.53672C11.4921 9.83551 11.5737 10.1633 11.7987 10.3821L13.5504 12.0896L13.1362 14.5012C13.0834 14.8106 13.2106 15.1233 13.4646 15.3079C13.7187 15.4925 14.0556 15.5166 14.3335 15.3704L16.4992 14.2332L18.6648 15.3707C18.7829 15.4332 18.9146 15.4659 19.0482 15.4659Z" fill="#01BBD1"/>
<path d="M32.9594 9.53611C32.8621 9.23792 32.6044 9.02039 32.2938 8.97507L29.872 8.6231L28.7892 6.4303C28.6351 6.16836 28.3539 6.00732 28.0496 6.00732C27.7457 6.00732 27.4641 6.16836 27.31 6.4303L26.2272 8.6234L23.8054 8.97537C23.4948 9.02039 23.2365 9.23822 23.1398 9.53672C23.0429 9.83551 23.1244 10.1633 23.3495 10.3821L25.1009 12.0896L24.687 14.5012C24.6338 14.8106 24.7613 15.1233 25.0154 15.3079C25.2695 15.4921 25.6061 15.5166 25.884 15.3704L28.0496 14.2332L30.2152 15.3707C30.4932 15.5169 30.8301 15.4925 31.0842 15.3082C31.3382 15.1236 31.4654 14.8109 31.4126 14.5015L30.9983 12.0903L32.7498 10.3824C32.9751 10.1633 33.0564 9.83491 32.9594 9.53611Z" fill="#01BBD1"/>
<path d="M26.5186 20.5246L24.0965 20.1732L23.0137 17.9789C22.8587 17.7179 22.5777 17.5583 22.2741 17.5583C21.9708 17.5583 21.6898 17.7179 21.5345 17.9789L20.4517 20.1732L18.0299 20.5246C17.7193 20.5702 17.4613 20.788 17.3643 21.0871C17.2676 21.3859 17.3489 21.7137 17.574 21.9328L19.3254 23.6407L18.9115 26.0528C18.8586 26.3622 18.9861 26.6746 19.2402 26.8592C19.4943 27.0435 19.8309 27.0676 20.1085 26.9214L22.2741 25.7824L24.4397 26.9214C24.5579 26.9843 24.6896 27.0172 24.8234 27.0166C25.0663 27.0163 25.2968 26.9093 25.4536 26.7235C25.6104 26.5377 25.6775 26.2927 25.637 26.0531L25.2231 23.641L26.9745 21.9331C27.1996 21.714 27.2809 21.3859 27.1842 21.0871C27.0875 20.788 26.8295 20.5702 26.5186 20.5246Z" fill="#01BBD1"/>
<path d="M14.9695 20.5246L12.5477 20.1732L11.4649 17.9789C11.3096 17.7179 11.0286 17.5583 10.7253 17.5583C10.422 17.5583 10.141 17.7179 9.98569 17.9789L8.90288 20.1732L6.48107 20.5246C6.17019 20.5702 5.91218 20.7883 5.8155 21.0871C5.71882 21.3859 5.80009 21.7137 6.02517 21.9328L7.77657 23.6407L7.36236 26.0528C7.30979 26.3622 7.43699 26.6746 7.69107 26.8592C7.94516 27.0435 8.28172 27.0676 8.55967 26.9214L10.7253 25.7824L12.8909 26.9214C13.009 26.9843 13.1408 27.0172 13.2743 27.0166C13.5175 27.0163 13.748 26.9093 13.9048 26.7235C14.0616 26.5377 14.1287 26.2927 14.0882 26.0531L13.674 23.641L15.4254 21.9331C15.6508 21.714 15.7321 21.3859 15.6354 21.0871C15.5384 20.788 15.2804 20.5702 14.9695 20.5246Z" fill="#01BBD1"/>
</g>
<defs>
<clipPath id="clip0_247_1134">
<rect width="33" height="33" fill="white"/>
</clipPath>
</defs>
</svg>
