<svg width="28" height="28" viewBox="0 0 28 28" fill="none" xmlns="http://www.w3.org/2000/svg">
<path d="M19.2514 5.25004H21.5849C21.8184 5.25004 22.0514 5.13356 22.1102 4.90004C22.2267 4.66652 22.1662 4.43356 21.9937 4.25828L18.4937 0.758275C18.319 0.582995 18.0855 0.524755 17.852 0.641795C17.6184 0.758835 17.502 0.933555 17.502 1.16651V3.50004C17.5014 4.4918 18.2574 5.25004 19.2514 5.25004Z" fill="#01BBD1"/>
<path d="M14.584 17.4416C14.5851 17.2019 14.6583 16.9681 14.7939 16.7705C14.9294 16.5729 15.1213 16.4206 15.3445 16.3333L20.0109 14.6416C20.1274 14.5856 20.3027 14.5856 20.4192 14.5856C20.5357 14.5856 20.7109 14.5856 20.8274 14.6416L22.1714 15.108V6.2998C21.9835 6.3665 21.787 6.40573 21.5879 6.41628H19.2505C18.8664 6.42002 18.4855 6.34714 18.13 6.2019C17.7744 6.05666 17.4514 5.84197 17.1799 5.57041C16.9083 5.29884 16.6936 4.97584 16.5484 4.6203C16.4031 4.26477 16.3302 3.88384 16.334 3.4998V1.16628C16.3445 0.967186 16.3838 0.770653 16.4505 0.582764H4.08398C3.09222 0.583324 2.33398 1.3438 2.33398 2.33332V24.4998C2.33398 25.4916 3.09222 26.2498 4.08398 26.2498H16.334C15.3445 25.2558 14.584 23.9163 14.584 22.2251V17.4416ZM7.00047 6.9998H12.2505C12.6005 6.9998 12.834 7.23332 12.834 7.58332C12.834 7.93332 12.6005 8.16684 12.2505 8.16684H7.00047C6.65047 8.16684 6.41695 7.93332 6.41695 7.58332C6.41695 7.23332 6.65047 6.9998 7.00047 6.9998ZM7.00047 9.91628H17.5005C17.8505 9.91628 18.084 10.1498 18.084 10.4998C18.084 10.8498 17.8505 11.0833 17.5005 11.0833H7.00047C6.65047 11.0833 6.41695 10.8498 6.41695 10.4998C6.41695 10.1498 6.65047 9.91628 7.00047 9.91628ZM6.41695 13.4163C6.41695 13.0663 6.65047 12.8328 7.00047 12.8328H15.1669C15.5169 12.8328 15.7505 13.0663 15.7505 13.4163C15.7505 13.7663 15.5169 13.9998 15.1669 13.9998H7.00047C6.65047 13.9998 6.41695 13.7663 6.41695 13.4163Z" fill="#01BBD1"/>
<path d="M20.4165 15.75L15.75 17.4418V22.167C15.75 25.4335 19.3665 27.0088 20.4165 27.3588C21.4665 27.0088 25.083 25.4341 25.083 22.167V17.4418L20.4165 15.75ZM22.633 20.1835L20.883 22.517C20.7665 22.6335 20.6494 22.7506 20.4747 22.7506H20.4187C20.3421 22.7527 20.2659 22.7382 20.1954 22.708C20.1249 22.6779 20.0618 22.6328 20.0105 22.5758L18.844 21.4094C18.7468 21.2995 18.6951 21.1568 18.6993 21.0102C18.7036 20.8636 18.7635 20.7241 18.8668 20.62C18.9702 20.5159 19.1092 20.4551 19.2558 20.4499C19.4024 20.4446 19.5455 20.4953 19.656 20.5918L20.356 21.2918L21.7 19.4835C21.8753 19.25 22.2835 19.1918 22.5165 19.367C22.7494 19.5423 22.8082 19.95 22.6335 20.1835H22.633Z" fill="#01BBD1"/>
</svg>
