<svg width="30" height="30" viewBox="0 0 30 30" fill="none" xmlns="http://www.w3.org/2000/svg">
<path d="M25.1016 3.57422C25.4252 3.57422 25.6875 3.31189 25.6875 2.98828C25.6875 2.66468 25.4252 2.40234 25.1016 2.40234C24.778 2.40234 24.5156 2.66468 24.5156 2.98828C24.5156 3.31189 24.778 3.57422 25.1016 3.57422Z" fill="#01BBD1"/>
<path d="M28.0312 13.5352C28.3549 13.5352 28.6172 13.2728 28.6172 12.9492C28.6172 12.6256 28.3549 12.3633 28.0312 12.3633C27.7076 12.3633 27.4453 12.6256 27.4453 12.9492C27.4453 13.2728 27.7076 13.5352 28.0312 13.5352Z" fill="#01BBD1"/>
<path d="M10.4531 14.1211C10.7767 14.1211 11.0391 13.8588 11.0391 13.5352C11.0391 13.2116 10.7767 12.9492 10.4531 12.9492C10.1295 12.9492 9.86719 13.2116 9.86719 13.5352C9.86719 13.8588 10.1295 14.1211 10.4531 14.1211Z" fill="#01BBD1"/>
<path d="M8.10938 18.2227C8.43298 18.2227 8.69531 17.9603 8.69531 17.6367C8.69531 17.3131 8.43298 17.0508 8.10938 17.0508C7.78577 17.0508 7.52344 17.3131 7.52344 17.6367C7.52344 17.9603 7.78577 18.2227 8.10938 18.2227Z" fill="#01BBD1"/>
<path d="M2.25 17.6367C2.5736 17.6367 2.83594 17.3744 2.83594 17.0508C2.83594 16.7272 2.5736 16.4648 2.25 16.4648C1.9264 16.4648 1.66406 16.7272 1.66406 17.0508C1.66406 17.3744 1.9264 17.6367 2.25 17.6367Z" fill="#01BBD1"/>
<path d="M3.42188 3.57422C3.74548 3.57422 4.00781 3.31189 4.00781 2.98828C4.00781 2.66468 3.74548 2.40234 3.42188 2.40234C3.09827 2.40234 2.83594 2.66468 2.83594 2.98828C2.83594 3.31189 3.09827 3.57422 3.42188 3.57422Z" fill="#01BBD1"/>
<path d="M21.8789 8.55469V9.14062H23.5195H24.2227V8.55469C24.2227 7.90852 23.697 7.38281 23.0508 7.38281C22.4046 7.38281 21.8789 7.90852 21.8789 8.55469Z" fill="#01BBD1"/>
<path d="M20.707 25.2539C20.707 23.2525 22.2591 21.6079 24.2227 21.4576V9.72653C23.7403 9.73731 22.9997 9.6837 21.8789 9.84307V14.2089C21.8789 19.4914 17.5813 23.789 12.2988 23.789H11.918V28.4765H13.6758V26.4257C13.6758 26.2639 13.807 26.1328 13.9688 26.1328C14.1305 26.1328 14.2617 26.2639 14.2617 26.4257V28.4765H16.0195V26.4257C16.0195 26.2639 16.1507 26.1328 16.3125 26.1328C16.4743 26.1328 16.6055 26.2639 16.6055 26.4257V28.4765H18.3633V26.4257C18.3633 26.2639 18.4945 26.1328 18.6563 26.1328C18.818 26.1328 18.9492 26.2639 18.9492 26.4257V28.4765H22.4896C21.4197 27.8015 20.707 26.6097 20.707 25.2539Z" fill="#01BBD1"/>
<path d="M11.918 21.3282V23.2032H12.2988C17.2582 23.2032 21.293 19.1685 21.293 14.209V9.94189C15.9575 10.9833 11.918 15.6925 11.918 21.3282Z" fill="#01BBD1"/>
<path d="M6.05859 24.082C6.05859 23.5974 5.66432 23.2031 5.17969 23.2031C4.69506 23.2031 4.30078 23.5974 4.30078 24.082V25.5469H6.05859V24.082Z" fill="#01BBD1"/>
<path d="M6.43059 26.1328C5.74727 26.1328 4.51973 26.1328 3.93057 26.1328C2.59205 26.1328 1.49037 27.1659 1.38086 28.4766H8.98018C8.87078 27.1659 7.76904 26.1328 6.43059 26.1328Z" fill="#01BBD1"/>
<path d="M24.5156 22.0312C22.7387 22.0312 21.293 23.4769 21.293 25.2539C21.293 27.0309 22.7387 28.4766 24.5156 28.4766C26.2926 28.4766 27.7383 27.0309 27.7383 25.2539C27.7383 23.4769 26.2926 22.0312 24.5156 22.0312ZM24.5156 26.7188C23.7079 26.7188 23.0508 26.0616 23.0508 25.2539C23.0508 24.4462 23.7079 23.7891 24.5156 23.7891C25.3233 23.7891 25.9805 24.4462 25.9805 25.2539C25.9805 26.0616 25.3233 26.7188 24.5156 26.7188Z" fill="#01BBD1"/>
<path d="M24.5156 24.375C24.031 24.375 23.6367 24.7693 23.6367 25.2539C23.6367 25.7385 24.031 26.1328 24.5156 26.1328C25.0003 26.1328 25.3945 25.7385 25.3945 25.2539C25.3945 24.7693 25.0003 24.375 24.5156 24.375Z" fill="#01BBD1"/>
<path d="M13.0899 7.96875V6.94336C13.0899 4.27787 15.2585 2.10938 17.9239 2.10938C20.5402 2.10938 22.6762 4.19906 22.7541 6.79688H23.3418C23.2638 3.87574 20.8634 1.52344 17.9238 1.52344C14.9353 1.52344 12.5039 3.95479 12.5039 6.94336V7.96875C12.5039 8.93801 11.7154 9.72656 10.7461 9.72656C9.77684 9.72656 8.98828 8.93801 8.98828 7.96875V6.50391C8.98828 5.37311 8.0683 4.45312 6.9375 4.45312C5.8067 4.45312 4.88672 5.37311 4.88672 6.50391V22.6172H5.47266V6.50391C5.47266 5.69619 6.12979 5.03906 6.9375 5.03906C7.74521 5.03906 8.40234 5.69619 8.40234 6.50391V7.96875C8.40234 9.26109 9.45375 10.3125 10.7461 10.3125C12.0385 10.3125 13.0899 9.26109 13.0899 7.96875Z" fill="#01BBD1"/>
</svg>
