<svg width="33" height="33" viewBox="0 0 33 33" fill="none" xmlns="http://www.w3.org/2000/svg">
<g clip-path="url(#clip0_247_987)">
<path d="M15.8374 16.3474C15.7198 16.3884 15.6047 16.4363 15.4927 16.4908C14.6754 16.923 14.0448 17.6397 13.7199 18.5054C13.1865 19.7497 10.7137 23.9261 1.28382 25.3553C0.978775 25.3978 0.705872 25.5672 0.532389 25.8217C0.361993 26.073 0.306159 26.3848 0.37875 26.6797C0.588823 27.4412 0.964358 28.147 1.47857 28.7468C1.51283 28.8079 1.55856 28.8619 1.61327 28.9058C2.59596 29.9575 3.81244 30.7632 5.16429 31.2575C5.1789 31.2634 5.19242 31.2704 5.20757 31.2753C5.84772 31.5275 6.50394 31.7367 7.17188 31.9018C8.35291 32.1937 9.55755 32.3802 10.7716 32.459C10.7932 32.4634 10.8151 32.4665 10.837 32.4682C10.843 32.4682 10.8489 32.4644 10.8544 32.4644C11.1735 32.4828 11.4976 32.4958 11.8281 32.4958C13.9234 32.4958 16.2344 32.0733 18.09 30.6905C18.9831 31.2997 20.1251 31.4116 21.1195 30.9875C21.9502 31.916 23.1237 32.4654 24.3687 32.5087C25.6138 32.552 26.8226 32.0854 27.7157 31.2169C28.9253 31.7875 30.3539 31.6226 31.4017 30.7913C32.4494 29.9601 32.9348 28.6064 32.6542 27.2987C32.3735 25.9911 31.3753 24.9558 30.0787 24.6277C29.6812 23.2451 28.5928 22.169 27.2057 21.7874C25.8186 21.4057 24.3329 21.7734 23.284 22.7581C22.6796 22.4221 21.9784 22.3029 21.297 22.4205C21.253 21.5571 21.1578 20.697 21.0119 19.8449C20.839 18.812 20.3155 17.8703 19.5296 17.1784L22.4146 2.25371C22.5133 1.76472 22.412 1.25658 22.1333 0.842825C21.7089 0.20286 20.9394 -0.116694 20.1865 0.0342983C19.4335 0.185291 18.8468 0.776815 18.7019 1.53096L15.8374 16.3474ZM23.0373 23.8855C23.2669 24.0603 23.5933 24.0241 23.779 23.8032C24.536 22.9056 25.7414 22.5229 26.8775 22.8194C28.0137 23.1159 28.8783 24.0389 29.1001 25.192C29.1441 25.4188 29.3273 25.5927 29.5562 25.6247C30.5421 25.7635 31.3442 26.4887 31.5812 27.4557C31.8183 28.4228 31.4426 29.4367 30.6327 30.0158C29.8227 30.5948 28.7418 30.6223 27.9035 30.0851C27.6757 29.9395 27.3755 29.9843 27.2002 30.1901C26.5075 31.0105 25.476 31.4666 24.4031 31.427C23.3302 31.3874 22.3351 30.8564 21.7049 29.9872C21.5385 29.7581 21.2235 29.696 20.9826 29.845C20.288 30.2745 19.4073 30.2622 18.7249 29.8135C18.0425 29.3648 17.6822 28.561 17.8013 27.753C17.9204 26.945 18.4973 26.2794 19.2802 26.0467C19.507 25.9788 19.6633 25.7712 19.6659 25.5344C19.6836 24.3856 20.6171 23.4622 21.766 23.457C22.2255 23.4555 22.6725 23.6062 23.0373 23.8855ZM18.6099 25.1438C17.4532 25.6544 16.7045 26.797 16.6981 28.0613C16.6988 28.7336 16.9137 29.3881 17.3115 29.9299C15.9925 30.805 14.461 31.3064 12.8798 31.3808C13.7977 30.7745 14.6253 30.0414 15.338 29.2033C15.5295 28.9737 15.4987 28.6323 15.2691 28.4408C15.0394 28.2493 14.6981 28.2802 14.5065 28.5098C13.4557 29.7151 12.168 30.6912 10.7234 31.377C9.61408 31.2953 8.5137 31.1192 7.43426 30.8506C7.33742 30.8263 7.25086 30.7965 7.15673 30.7738C10.0477 29.7849 13.3591 28.0819 15.3256 25.1876C15.488 24.9407 15.4222 24.609 15.1777 24.4429C14.9332 24.2767 14.6006 24.3376 14.4308 24.5796C12.3047 27.7108 8.38531 29.3527 5.40232 30.1869C4.57573 29.8596 3.80248 29.4111 3.10801 28.856C5.21948 28.5535 7.2704 27.9215 9.18596 26.9831C9.35822 26.892 9.46815 26.7153 9.47375 26.5205C9.47935 26.3257 9.37976 26.143 9.21302 26.0421C9.04629 25.9412 8.83818 25.9378 8.66824 26.0332C6.69095 27.1119 3.87188 27.6605 2.18509 27.9088C1.83764 27.4708 1.58357 26.9664 1.43854 26.4265C9.75291 25.1654 13.0156 21.7654 14.2144 19.866C14.419 20.063 14.6422 20.2399 14.8809 20.394C15.6747 20.8904 16.5956 21.1454 17.5317 21.1281C17.5928 21.1281 17.6534 21.1281 17.7151 21.1248C18.5077 21.1115 19.2946 20.9881 20.0532 20.7581C20.1468 21.4311 20.2037 22.1086 20.2236 22.7878C19.3448 23.2753 18.7469 24.1482 18.6099 25.1438ZM19.8607 19.675C19.1571 19.9087 18.4218 20.0329 17.6805 20.0434C16.9047 20.0888 16.1337 19.8945 15.4722 19.4867C15.2012 19.316 14.9587 19.1037 14.7538 18.8576C14.9829 18.2634 15.4143 17.7692 15.9721 17.4618C16.5883 17.1772 17.2965 17.1684 17.9196 17.4375C18.8838 17.8347 19.6035 18.6644 19.8607 19.675ZM19.7644 1.73599C19.8495 1.29962 20.27 1.01304 20.7073 1.0933C20.9224 1.13518 21.1119 1.26117 21.2337 1.44332C21.3524 1.61979 21.3954 1.83645 21.3532 2.04489L18.5482 16.5432C18.4665 16.5048 18.3859 16.461 18.3032 16.4286C17.8785 16.2656 17.4287 16.1777 16.974 16.1689L19.7644 1.73599Z" fill="#00BDD3"/>
<path d="M25.4337 25.1995C25.6529 24.9392 26.0023 24.828 26.3317 24.9138C26.6611 24.9997 26.9118 25.2672 26.976 25.6015C27.0251 25.8562 27.2479 26.0402 27.5073 26.0402C27.5418 26.0401 27.5762 26.0369 27.6101 26.0305C27.751 26.0034 27.8753 25.9214 27.9558 25.8026C28.0362 25.6838 28.0662 25.5379 28.0391 25.397C27.8957 24.6532 27.3377 24.0581 26.6048 23.8669C25.8719 23.6758 25.0944 23.9227 24.606 24.5017C24.4133 24.7302 24.4424 25.0717 24.6709 25.2644C24.8995 25.4571 25.241 25.4281 25.4337 25.1995Z" fill="#00BDD3"/>
<path d="M28.4023 18.664C28.4023 19.7097 29.2501 20.5574 30.2958 20.5574C31.3415 20.5574 32.1892 19.7097 32.1892 18.664C32.1892 17.6182 31.3415 16.7705 30.2958 16.7705C29.2501 16.7705 28.4023 17.6182 28.4023 18.664ZM31.1073 18.664C31.1073 19.1121 30.744 19.4754 30.2958 19.4754C29.8476 19.4754 29.4843 19.1121 29.4843 18.664C29.4843 18.2158 29.8476 17.8525 30.2958 17.8525C30.744 17.8525 31.1073 18.2158 31.1073 18.664Z" fill="#00BDD3"/>
<path d="M26.7792 16.7704C27.6755 16.7704 28.4022 16.0438 28.4022 15.1475C28.4022 14.2512 27.6755 13.5245 26.7792 13.5245C25.8829 13.5245 25.1562 14.2512 25.1562 15.1475C25.1562 16.0438 25.8829 16.7704 26.7792 16.7704ZM26.7792 14.6065C27.078 14.6065 27.3202 14.8487 27.3202 15.1475C27.3202 15.4463 27.078 15.6885 26.7792 15.6885C26.4804 15.6885 26.2382 15.4463 26.2382 15.1475C26.2382 14.8487 26.4804 14.6065 26.7792 14.6065Z" fill="#00BDD3"/>
<path d="M4.05661 12.4426C4.35539 12.4426 4.59759 12.2004 4.59759 11.9016V10.8197C4.59759 10.5209 4.35539 10.2787 4.05661 10.2787C3.75783 10.2787 3.51562 10.5209 3.51562 10.8197V11.9016C3.51562 12.2004 3.75783 12.4426 4.05661 12.4426Z" fill="#00BDD3"/>
<path d="M4.59759 15.1475V14.0655C4.59759 13.7667 4.35539 13.5245 4.05661 13.5245C3.75783 13.5245 3.51562 13.7667 3.51562 14.0655V15.1475C3.51562 15.4463 3.75783 15.6885 4.05661 15.6885C4.35539 15.6885 4.59759 15.4463 4.59759 15.1475Z" fill="#00BDD3"/>
<path d="M1.89255 13.5246H2.97451C3.27329 13.5246 3.5155 13.2824 3.5155 12.9836C3.5155 12.6848 3.27329 12.4426 2.97451 12.4426H1.89255C1.59377 12.4426 1.35156 12.6848 1.35156 12.9836C1.35156 13.2824 1.59377 13.5246 1.89255 13.5246Z" fill="#00BDD3"/>
<path d="M5.13864 13.5246H6.22061C6.51938 13.5246 6.76159 13.2824 6.76159 12.9836C6.76159 12.6848 6.51938 12.4426 6.22061 12.4426H5.13864C4.83986 12.4426 4.59766 12.6848 4.59766 12.9836C4.59766 13.2824 4.83986 13.5246 5.13864 13.5246Z" fill="#00BDD3"/>
<path d="M6.10946 19.3634L5.29798 20.1749C5.15735 20.3107 5.10095 20.5119 5.15046 20.701C5.19997 20.8901 5.34768 21.0379 5.53682 21.0874C5.72597 21.1369 5.92711 21.0805 6.06293 20.9398L6.87441 20.1284C7.07943 19.9161 7.07649 19.5787 6.86782 19.37C6.65914 19.1613 6.32173 19.1584 6.10946 19.3634Z" fill="#00BDD3"/>
<path d="M9.308 16.929C9.09675 16.7178 8.75431 16.7178 8.54305 16.929L7.73158 17.7405C7.59094 17.8763 7.53454 18.0775 7.58405 18.2666C7.63356 18.4558 7.78127 18.6035 7.97042 18.653C8.15956 18.7025 8.3607 18.6461 8.49653 18.5054L9.308 17.694C9.51919 17.4827 9.51919 17.1403 9.308 16.929Z" fill="#00BDD3"/>
<path d="M8.49689 19.3634C8.28462 19.1584 7.9472 19.1613 7.73853 19.37C7.52985 19.5787 7.52692 19.9161 7.73194 20.1284L8.54341 20.9398C8.75568 21.1449 9.0931 21.1419 9.30177 20.9332C9.51045 20.7246 9.51338 20.3872 9.30837 20.1749L8.49689 19.3634Z" fill="#00BDD3"/>
<path d="M6.87477 17.7404L6.0633 16.929C5.85102 16.7239 5.51361 16.7269 5.30493 16.9355C5.09626 17.1442 5.09333 17.4816 5.29834 17.6939L6.10982 18.5054C6.32209 18.7104 6.65951 18.7075 6.86818 18.4988C7.07686 18.2901 7.07979 17.9527 6.87477 17.7404Z" fill="#00BDD3"/>
<path d="M6.6696 5.44878L15.8663 7.07173C15.8976 7.07736 15.9292 7.08008 15.961 7.07985C16.2405 7.07842 16.4729 6.86431 16.4972 6.58586C16.5214 6.30741 16.3296 6.05631 16.0546 6.00653L6.85786 4.38358C6.56715 4.33877 6.29391 4.53445 6.24272 4.8241C6.19152 5.11375 6.38114 5.39123 6.6696 5.44878Z" fill="#00BDD3"/>
<path d="M15.3225 9.7767C15.3538 9.78233 15.3854 9.78505 15.4172 9.78482C15.6967 9.78339 15.9291 9.56929 15.9534 9.29084C15.9777 9.01239 15.7858 8.76129 15.5108 8.71151L9.64706 7.67607C9.35276 7.62408 9.07205 7.82051 9.02006 8.1148C8.96807 8.4091 9.1645 8.68982 9.4588 8.7418L15.3225 9.7767Z" fill="#00BDD3"/>
<path d="M7.25437 10.5561C7.22937 10.6975 7.26155 10.8429 7.34383 10.9605C7.42612 11.0781 7.55176 11.1582 7.69311 11.1831L14.7827 12.4344C14.8138 12.4397 14.8453 12.4425 14.8768 12.4425C15.1575 12.4427 15.3916 12.2281 15.416 11.9485C15.4404 11.6689 15.2469 11.4171 14.9704 11.3687L7.88083 10.1163C7.73942 10.0915 7.59395 10.1239 7.47645 10.2064C7.35894 10.2889 7.27905 10.4147 7.25437 10.5561Z" fill="#00BDD3"/>
</g>
<defs>
<clipPath id="clip0_247_987">
<rect width="33" height="33" fill="white"/>
</clipPath>
</defs>
</svg>
