<svg width="35" height="34" viewBox="0 0 35 34" fill="none" xmlns="http://www.w3.org/2000/svg">
<path d="M32.7406 17.7328L31.3463 17.2862C31.1677 17.2289 31.0269 17.0864 30.9698 16.9048C30.676 15.9705 30.2325 15.0933 29.6517 14.2976C29.3871 13.9349 29.0927 13.5886 28.7712 13.2589C28.9769 12.3565 29.0887 11.3352 29.0742 10.4529C29.0535 9.19062 28.8013 8.4503 28.3031 8.18941C28.0349 8.04872 27.2184 7.62135 22.7993 9.64425C22.6947 9.69212 22.5969 9.7511 22.5064 9.81865C22.2085 9.7386 21.904 9.66453 21.5976 9.59805C21.5607 9.59 21.5227 9.58289 21.4855 9.57504C21.8436 8.79277 22.0527 7.94314 22.092 7.06606C22.1043 6.79267 21.8926 6.56117 21.6192 6.549C21.3466 6.53544 21.1143 6.74833 21.1022 7.02172C21.0376 8.46386 20.4394 9.82077 19.4178 10.8425C18.8074 11.4529 18.0926 11.8963 17.3309 12.1755C16.0099 11.9901 14.6643 11.9901 13.3433 12.1755C12.5815 11.8963 11.8669 11.4529 11.2565 10.8425C10.1665 9.75249 9.5662 8.3033 9.5662 6.76182C9.5662 5.22028 10.1665 3.77115 11.2565 2.68118C12.3464 1.59114 13.7957 0.99084 15.3371 0.99084C16.8785 0.99084 18.3278 1.59114 19.4178 2.68118C19.8558 3.11919 20.2177 3.61903 20.4936 4.16668C20.6166 4.41108 20.9146 4.50948 21.1589 4.38634C21.4033 4.26335 21.5016 3.96542 21.3786 3.72109C21.0552 3.0789 20.6313 2.49336 20.1185 1.98048C18.8413 0.703355 17.1433 0 15.3372 0C13.5311 0 11.833 0.703355 10.5559 1.98048C9.27878 3.25768 8.57543 4.95566 8.57543 6.76176C8.57543 8.56785 9.27878 10.2659 10.5559 11.543C10.9243 11.9114 11.3251 12.2282 11.749 12.4936C11.7491 12.4936 11.7493 12.4936 11.7494 12.4936C11.4414 12.5736 11.1357 12.6635 10.8334 12.7646C10.5739 12.8513 10.4338 13.132 10.5206 13.3915C10.6073 13.651 10.8881 13.791 11.1475 13.7044C13.8492 12.8011 16.8251 12.8011 19.5269 13.7044C19.579 13.7218 19.6319 13.73 19.684 13.73C19.8912 13.73 20.0844 13.5989 20.1538 13.3915C20.2405 13.132 20.1005 12.8513 19.841 12.7646C19.5387 12.6635 19.233 12.5736 18.925 12.4936C18.9251 12.4936 18.9252 12.4936 18.9254 12.4936C19.3493 12.2282 19.7501 11.9114 20.1185 11.543C20.4444 11.2171 20.7321 10.8612 20.9818 10.483C21.1184 10.5095 21.254 10.5373 21.3875 10.5663C21.5655 10.6049 21.7426 10.6464 21.9181 10.6899C21.9126 10.7115 21.9069 10.733 21.9023 10.7548C21.6607 11.9014 21.6764 12.9154 21.9489 13.7686C22.1939 14.5356 22.6359 15.1569 23.2627 15.6154C24.0014 16.1558 24.8933 16.3893 25.7011 16.3893C26.3092 16.3893 26.8697 16.2569 27.2814 16.0238C27.7471 15.76 28.1372 15.2043 28.446 14.3699C28.5888 14.5365 28.7241 14.7072 28.8516 14.8819C29.3686 15.5902 29.7634 16.3709 30.0248 17.2021C30.1783 17.6903 30.5594 18.0745 31.0442 18.2299L32.4385 18.6765C32.8044 18.7937 33.0502 19.1305 33.0502 19.5146V21.8267C33.0502 22.2108 32.8044 22.5476 32.4385 22.6648L30.192 23.3844C29.8326 23.4996 29.5284 23.7466 29.3355 24.08C28.4529 25.6053 27.0653 26.8675 25.2109 27.8316C24.9967 27.9431 24.8483 28.1425 24.8037 28.3788L24.0841 32.1886C24.0643 32.2936 23.9723 32.3698 23.8655 32.3698H21.526C21.4192 32.3698 21.3272 32.2936 21.3074 32.1886L20.9088 30.0831C20.8304 29.6688 20.4418 29.3936 20.0236 29.457C19.0159 29.6094 17.9775 29.6866 16.9375 29.6866C16.1637 29.6866 15.3999 29.6434 14.667 29.5583C14.2618 29.5117 13.8843 29.7879 13.8085 30.188L13.4298 32.1886C13.41 32.2936 13.318 32.3698 13.2112 32.3698H10.8717C10.7649 32.3698 10.6729 32.2936 10.6528 32.1871L9.96 28.5887C9.91538 28.3569 9.76978 28.1597 9.56028 28.0478C6.39927 26.3604 4.72848 23.5411 4.72848 19.895C4.72848 18.0528 5.13152 16.4238 5.92636 15.0532C6.66808 13.774 7.7514 12.7164 9.14621 11.9096C9.38303 11.7726 9.46394 11.4696 9.32698 11.2327C9.19002 10.9958 8.88698 10.9151 8.65009 11.0519C5.94551 12.6164 4.31427 15.0302 3.86516 18.0958V18.0958C3.81749 18.0914 3.76975 18.0873 3.72222 18.0824C3.73086 17.7516 3.67102 17.4179 3.54071 17.0939C3.25329 16.3795 2.6629 15.8638 2.03653 15.7802C1.54294 15.7142 1.07322 15.9237 0.747236 16.3544C0.274587 16.979 0.351644 17.4732 0.499443 17.7779C0.748964 18.292 1.39035 18.6557 2.45473 18.8843C2.42547 18.9282 2.3933 18.9722 2.35806 19.0164C1.72917 19.8051 0.988247 19.9795 0.507155 19.9959C0.22552 20.0054 0 20.2315 0 20.5134V20.5158C0 20.7938 0.219337 21.0205 0.497049 21.0332C0.532619 21.0348 0.569785 21.0357 0.60848 21.0357C1.21723 21.0357 2.19424 20.8112 3.13288 19.6342C3.28108 19.4484 3.40182 19.2524 3.49464 19.0499C3.58811 19.0605 3.67794 19.0695 3.76397 19.0775C3.76397 19.0773 3.76397 19.0772 3.76404 19.077C3.74715 19.3454 3.73777 19.6178 3.73777 19.895C3.73777 21.9579 4.22957 23.7973 5.1994 25.3621C6.09364 26.8049 7.37396 27.9862 9.00605 28.8746L9.67956 32.3728C9.78786 32.9451 10.2892 33.3605 10.8717 33.3605H13.2112C13.7936 33.3605 14.295 32.9451 14.4033 32.3728L14.7457 30.5639C15.4569 30.6392 16.1931 30.6774 16.9374 30.6774C17.9587 30.6774 18.9787 30.6062 19.9728 30.4658L20.3337 32.3729C20.4421 32.9453 20.9435 33.3606 21.5259 33.3606H23.8653C24.4478 33.3606 24.9492 32.9452 25.0576 32.3727L25.7581 28.6634C27.7373 27.6168 29.2291 26.242 30.193 24.5761C30.2625 24.4561 30.3695 24.368 30.4942 24.328L32.7406 23.6084C33.5183 23.3592 34.0408 22.6432 34.0408 21.8265V19.5145C34.0408 18.6979 33.5183 17.9819 32.7406 17.7328ZM28.0091 11.845C27.8184 13.4756 27.3069 14.8705 26.793 15.1616C26.2088 15.4925 24.8602 15.5564 23.8476 14.8157C22.8338 14.0741 22.4964 12.7405 22.8717 10.9591C22.8717 10.959 22.8717 10.959 22.8717 10.959C22.9094 10.7801 23.0365 10.6253 23.2117 10.5451C25.6919 9.40982 27.1218 9.0385 27.653 9.0385C27.7332 9.0385 27.7929 9.04694 27.8327 9.0625C27.9923 9.23257 28.2016 10.1993 28.0091 11.845ZM1.39095 17.3453C1.33969 17.2395 1.4607 17.0537 1.53742 16.9523C1.65902 16.7916 1.77105 16.7588 1.85569 16.7588C1.87357 16.7588 1.89026 16.7602 1.90555 16.7623C2.13334 16.7927 2.45247 17.0433 2.62154 17.4636C2.66137 17.5625 2.71309 17.7264 2.72519 17.9308C2.03939 17.7887 1.50657 17.5839 1.39095 17.3453Z" fill="#00BDD3"/>
<path d="M26.5608 18.3606C26.3074 18.3606 26.102 18.5703 26.102 18.829C26.102 19.157 25.8407 19.4238 25.5195 19.4238C25.1984 19.4238 24.937 19.157 24.937 18.829C24.937 18.5703 24.7316 18.3606 24.4783 18.3606C24.2249 18.3606 24.0195 18.5703 24.0195 18.829C24.0195 19.6735 24.6925 20.3606 25.5195 20.3606C26.3466 20.3606 27.0195 19.6735 27.0195 18.829C27.0195 18.5702 26.8141 18.3606 26.5608 18.3606Z" fill="#00BDD3"/>
</svg>
