<svg width="90" height="46" viewBox="0 0 90 46" fill="none" xmlns="http://www.w3.org/2000/svg">
<path d="M7.464 60.84L6.66011 61.4349L6.66691 61.4439L7.464 60.84ZM7.464 10.056L6.664 9.456L6.66303 9.45729L7.464 10.056ZM47.016 10.056L46.2122 10.6508L46.215 10.6547L47.016 10.056ZM47.016 60.84L47.817 61.4387L47.8198 61.4348L47.016 60.84ZM17.064 51.816L16.2103 52.3369L16.2144 52.3434L17.064 51.816ZM37.416 51.72L36.5687 51.1887L36.5624 51.1991L37.416 51.72ZM37.416 18.984L36.5623 19.5049L36.5688 19.5153L37.416 18.984ZM27.24 69.344C19.1491 69.344 12.8603 66.3071 8.26109 60.2361L6.66691 61.4439C11.6677 68.0449 18.5629 71.344 27.24 71.344V69.344ZM8.26784 60.2452C3.69513 54.0658 1.36 45.8153 1.36 35.4H-0.64C-0.64 46.1047 1.76087 54.8142 6.66016 61.4348L8.26784 60.2452ZM1.36 35.4C1.36 24.9841 3.69538 16.7681 8.26497 10.6547L6.66303 9.45729C1.76062 16.0159 -0.64 24.6959 -0.64 35.4H1.36ZM8.264 10.656C12.8648 4.52161 19.1531 1.45599 27.24 1.45599V-0.544006C18.5589 -0.544006 11.6632 2.79038 6.664 9.456L8.264 10.656ZM27.24 1.45599C35.3936 1.45599 41.6778 4.52333 46.2122 10.6508L47.8198 9.46115C42.8822 2.78866 35.9824 -0.544006 27.24 -0.544006V1.45599ZM46.215 10.6547C50.7846 16.7681 53.12 24.9841 53.12 35.4H55.12C55.12 24.6959 52.7194 16.0159 47.817 9.45729L46.215 10.6547ZM53.12 35.4C53.12 45.8153 50.7849 54.0658 46.2122 60.2452L47.8198 61.4348C52.7191 54.8142 55.12 46.1047 55.12 35.4H53.12ZM46.215 60.2413C41.6823 66.3054 35.3976 69.344 27.24 69.344V71.344C35.9784 71.344 42.8777 68.0466 47.817 61.4387L46.215 60.2413ZM16.2144 52.3434C18.7064 56.3582 22.4248 58.384 27.24 58.384V56.384C23.0952 56.384 20.0296 54.6978 17.9136 51.2886L16.2144 52.3434ZM27.24 58.384C32.0631 58.384 35.7812 56.3191 38.2696 52.2409L36.5624 51.1991C34.4428 54.6729 31.3769 56.384 27.24 56.384V58.384ZM38.2632 52.2513C40.7739 48.2477 41.968 42.5903 41.968 35.4H39.968C39.968 42.4176 38.7941 47.6403 36.5688 51.1887L38.2632 52.2513ZM41.968 35.4C41.968 28.1477 40.7746 22.4574 38.2632 18.4527L36.5688 19.5153C38.7934 23.0626 39.968 28.3163 39.968 35.4H41.968ZM38.2696 18.4631C35.7812 14.3849 32.0631 12.32 27.24 12.32V14.32C31.3769 14.32 34.4428 16.0311 36.5624 19.5049L38.2696 18.4631ZM27.24 12.32C22.4169 12.32 18.6988 14.3849 16.2104 18.4631L17.9176 19.5049C20.0372 16.0311 23.1031 14.32 27.24 14.32V12.32ZM16.2104 18.4631C13.7684 22.4652 12.608 28.151 12.608 35.4H14.608C14.608 28.313 15.7516 23.0548 17.9176 19.5049L16.2104 18.4631ZM12.608 35.4C12.608 42.649 13.7684 48.3348 16.2104 52.3369L17.9176 51.2951C15.7516 47.7452 14.608 42.487 14.608 35.4H12.608ZM78.1537 1.8V0.799995H77.9823L77.8207 0.857101L78.1537 1.8ZM89.6738 1.8H90.6738V0.799995H89.6738V1.8ZM89.6738 69V70H90.6738V69H89.6738ZM76.4258 69H75.4258V70H76.4258V69ZM76.4258 15.816H77.4258V14.4972L76.1559 14.8531L76.4258 15.816ZM63.7538 19.368L62.7928 19.6449L63.0677 20.5988L64.0237 20.3309L63.7538 19.368ZM60.4897 8.03999L60.1567 7.0971L59.2679 7.41108L59.5288 8.31687L60.4897 8.03999ZM78.1537 2.8H89.6738V0.799995H78.1537V2.8ZM88.6738 1.8V69H90.6738V1.8H88.6738ZM89.6738 68H76.4258V70H89.6738V68ZM77.4258 69V15.816H75.4258V69H77.4258ZM76.1559 14.8531L63.4838 18.4051L64.0237 20.3309L76.6956 16.7789L76.1559 14.8531ZM64.7147 19.0911L61.4507 7.76312L59.5288 8.31687L62.7928 19.6449L64.7147 19.0911ZM60.8228 8.98289L78.4868 2.74289L77.8207 0.857101L60.1567 7.0971L60.8228 8.98289Z" fill="#BAD6EE"/>
</svg>
