<svg width="108" height="46" viewBox="0 0 108 46" fill="none" xmlns="http://www.w3.org/2000/svg">
<path d="M7.464 60.84L6.66011 61.4349L6.66691 61.4439L7.464 60.84ZM7.464 10.056L6.664 9.456L6.66303 9.45729L7.464 10.056ZM47.016 10.056L46.2122 10.6508L46.215 10.6547L47.016 10.056ZM47.016 60.84L47.817 61.4387L47.8198 61.4348L47.016 60.84ZM17.064 51.816L16.2103 52.3369L16.2144 52.3434L17.064 51.816ZM37.416 51.72L36.5687 51.1887L36.5624 51.1991L37.416 51.72ZM37.416 18.984L36.5623 19.5049L36.5688 19.5153L37.416 18.984ZM27.24 69.344C19.1491 69.344 12.8603 66.3071 8.26109 60.2361L6.66691 61.4439C11.6677 68.0449 18.5629 71.344 27.24 71.344V69.344ZM8.26784 60.2452C3.69513 54.0658 1.36 45.8153 1.36 35.4H-0.64C-0.64 46.1047 1.76087 54.8142 6.66016 61.4348L8.26784 60.2452ZM1.36 35.4C1.36 24.9841 3.69538 16.7681 8.26497 10.6547L6.66303 9.45729C1.76062 16.0159 -0.64 24.6959 -0.64 35.4H1.36ZM8.264 10.656C12.8648 4.52161 19.1531 1.45599 27.24 1.45599V-0.544006C18.5589 -0.544006 11.6632 2.79038 6.664 9.456L8.264 10.656ZM27.24 1.45599C35.3936 1.45599 41.6778 4.52333 46.2122 10.6508L47.8198 9.46115C42.8822 2.78866 35.9824 -0.544006 27.24 -0.544006V1.45599ZM46.215 10.6547C50.7846 16.7681 53.12 24.9841 53.12 35.4H55.12C55.12 24.6959 52.7194 16.0159 47.817 9.45729L46.215 10.6547ZM53.12 35.4C53.12 45.8153 50.7849 54.0658 46.2122 60.2452L47.8198 61.4348C52.7191 54.8142 55.12 46.1047 55.12 35.4H53.12ZM46.215 60.2413C41.6823 66.3054 35.3976 69.344 27.24 69.344V71.344C35.9784 71.344 42.8777 68.0466 47.817 61.4387L46.215 60.2413ZM16.2144 52.3434C18.7064 56.3582 22.4248 58.384 27.24 58.384V56.384C23.0952 56.384 20.0296 54.6978 17.9136 51.2886L16.2144 52.3434ZM27.24 58.384C32.0631 58.384 35.7812 56.3191 38.2696 52.2409L36.5624 51.1991C34.4428 54.6729 31.3769 56.384 27.24 56.384V58.384ZM38.2632 52.2513C40.7739 48.2477 41.968 42.5903 41.968 35.4H39.968C39.968 42.4176 38.7941 47.6403 36.5688 51.1887L38.2632 52.2513ZM41.968 35.4C41.968 28.1477 40.7746 22.4574 38.2632 18.4527L36.5688 19.5153C38.7934 23.0626 39.968 28.3163 39.968 35.4H41.968ZM38.2696 18.4631C35.7812 14.3849 32.0631 12.32 27.24 12.32V14.32C31.3769 14.32 34.4428 16.0311 36.5624 19.5049L38.2696 18.4631ZM27.24 12.32C22.4169 12.32 18.6988 14.3849 16.2104 18.4631L17.9176 19.5049C20.0372 16.0311 23.1031 14.32 27.24 14.32V12.32ZM16.2104 18.4631C13.7684 22.4652 12.608 28.151 12.608 35.4H14.608C14.608 28.313 15.7516 23.0548 17.9176 19.5049L16.2104 18.4631ZM12.608 35.4C12.608 42.649 13.7684 48.3348 16.2104 52.3369L17.9176 51.2951C15.7516 47.7452 14.608 42.487 14.608 35.4H12.608ZM62.2132 69H61.2132V70H62.2132V69ZM62.2132 59.112L61.496 58.4152L61.2132 58.7062V59.112H62.2132ZM85.1572 35.496L85.8745 36.1929L85.8814 36.1857L85.1572 35.496ZM90.3413 15.72L89.6341 16.4271L89.6411 16.434L89.6481 16.4408L90.3413 15.72ZM72.8692 21.192L72.3635 22.0547L73.3135 22.6116L73.7766 21.6125L72.8692 21.192ZM61.7333 14.664L60.8242 14.2473L60.4474 15.0694L61.2275 15.5267L61.7333 14.664ZM70.8532 4.104L70.3307 3.25139L70.8532 4.104ZM99.5573 6.216L98.8956 6.96586L98.9019 6.97132L99.5573 6.216ZM81.8932 56.232L81.1861 55.5249L79.479 57.232H81.8932V56.232ZM107.141 56.232H108.141V55.232H107.141V56.232ZM107.141 69V70H108.141V69H107.141ZM63.2132 69V59.112H61.2132V69H63.2132ZM62.9305 59.8088L85.8745 36.1928L84.44 34.7992L61.496 58.4152L62.9305 59.8088ZM85.8814 36.1857C88.475 33.4624 90.4522 30.9334 91.7855 28.6001C93.1162 26.2715 93.8372 24.082 93.8372 22.056H91.8372C91.8372 23.614 91.2783 25.4565 90.049 27.6079C88.8223 29.7546 86.9595 32.1536 84.4331 34.8063L85.8814 36.1857ZM93.8372 22.056C93.8372 19.2007 92.922 16.8142 91.0344 14.9992L89.6481 16.4408C91.0885 17.8258 91.8372 19.6633 91.8372 22.056H93.8372ZM91.0484 15.0129C89.2356 13.2001 86.8885 12.32 84.1012 12.32V14.32C86.434 14.32 88.2469 15.0399 89.6341 16.4271L91.0484 15.0129ZM84.1012 12.32C81.3906 12.32 78.9852 13.0268 76.9273 14.4691C74.8775 15.9057 73.2327 18.0294 71.9619 20.7715L73.7766 21.6125C74.9378 19.1066 76.381 17.2943 78.0752 16.1069C79.7613 14.9252 81.7559 14.32 84.1012 14.32V12.32ZM73.375 20.3293L62.239 13.8013L61.2275 15.5267L72.3635 22.0547L73.375 20.3293ZM62.6423 15.0807C64.6793 10.6363 67.5922 7.2756 71.3758 4.9566L70.3307 3.25139C66.1783 5.79639 63.0112 9.4757 60.8242 14.2473L62.6423 15.0807ZM71.3758 4.9566C75.1837 2.62276 79.3543 1.45599 83.9093 1.45599V-0.544006C78.9922 -0.544006 74.4588 0.721233 70.3307 3.25139L71.3758 4.9566ZM83.9093 1.45599C89.7583 1.45599 94.7356 3.29523 98.8956 6.96583L100.219 5.46616C95.6749 1.45676 90.2202 -0.544006 83.9093 -0.544006V1.45599ZM98.9019 6.97132C103.007 10.5329 105.085 15.3623 105.085 21.576H107.085C107.085 14.8617 104.812 9.45105 100.213 5.46067L98.9019 6.97132ZM105.085 21.576C105.085 28.1807 101.602 35.109 94.3381 42.3729L95.7524 43.7871C103.209 36.331 107.085 28.9233 107.085 21.576H105.085ZM94.3381 42.3729L81.1861 55.5249L82.6004 56.9391L95.7524 43.7871L94.3381 42.3729ZM81.8932 57.232H107.141V55.232H81.8932V57.232ZM106.141 56.232V69H108.141V56.232H106.141ZM107.141 68H62.2132V70H107.141V68Z" fill="#BAD6EE"/>
</svg>
