<svg width="36" height="36" viewBox="0 0 36 36" fill="none" xmlns="http://www.w3.org/2000/svg">
<g clip-path="url(#clip0_247_1011)">
<path d="M32.762 8.54816C32.7613 7.7768 32.3481 7.06576 31.6839 6.69263C31.6751 6.68778 31.6663 6.68299 31.6574 6.67857L19.014 0.268675C18.384 -0.0861765 17.6347 -0.0896919 17.0021 0.259113L4.42176 6.6335C3.70024 6.98525 3.23438 7.7363 3.23438 8.54879V18.9726C3.23438 22.7542 4.62917 26.3937 7.26802 29.4974C9.85913 32.5449 13.4635 34.8243 17.4175 35.9161C17.607 35.972 17.8025 35.9999 17.9983 35.9999C18.1812 35.9999 18.3645 35.9755 18.5433 35.9266C22.5125 34.8389 26.1305 32.5556 28.7307 29.4973C31.3695 26.3936 32.7643 22.7542 32.7643 18.9724L32.762 8.54816ZM27.6593 28.5865C25.2405 31.4316 21.871 33.5568 18.1721 34.5703C18.0518 34.6033 17.9311 34.6021 17.8129 34.5666C17.8081 34.5651 17.8032 34.5638 17.7984 34.5624C14.1106 33.5456 10.7513 31.4233 8.3394 28.5865C5.91963 25.7405 4.64063 22.416 4.64063 18.9726V8.54886C4.64063 8.26981 4.79735 8.01381 5.04006 7.8966C5.04407 7.89471 5.048 7.89274 5.05194 7.8907L17.6498 1.50745C17.6587 1.50296 17.6675 1.49824 17.6763 1.49332C17.7775 1.43644 17.8885 1.40811 17.9993 1.40811C18.113 1.40811 18.2268 1.43792 18.3303 1.49747C18.3411 1.50373 18.3521 1.5097 18.3633 1.51533L31.006 7.9248C31.2219 8.05136 31.3557 8.28949 31.356 8.549L31.3583 18.9726C31.3582 22.416 30.0791 25.7405 27.6593 28.5865Z" fill="#00BDD3" stroke="#ECF2F7" stroke-width="0.4"/>
<path d="M29.5648 8.77067L18.3165 3.06816C18.1167 2.96684 17.8806 2.96691 17.6808 3.06809L14.8786 4.48791C14.5322 4.66341 14.3937 5.08646 14.5693 5.4328C14.7448 5.77929 15.168 5.91765 15.5142 5.74216L17.9985 4.48341L28.5438 9.82959L28.5459 18.9733C28.5465 21.7391 27.499 24.4333 25.5168 26.7647C23.5943 29.0259 20.9314 30.7693 17.9997 31.6901C15.0676 30.7691 12.4045 29.0257 10.4821 26.7647C8.50046 24.434 7.45306 21.7395 7.45306 18.9725V9.82678L9.86959 8.60228C10.2159 8.42678 10.3544 8.00366 10.1789 7.65739C10.0034 7.31083 9.58027 7.17246 9.23393 7.34803L6.43217 8.76771C6.19579 8.88745 6.04688 9.12988 6.04688 9.39487V18.9726C6.04688 22.0778 7.21007 25.0873 9.41075 27.6757C11.5508 30.1927 14.5293 32.1187 17.7977 33.099C17.8637 33.1188 17.9317 33.1287 17.9997 33.1287C18.0678 33.1287 18.1359 33.1188 18.2017 33.099C21.4697 32.119 24.448 30.1929 26.5881 27.6756C28.7896 25.0864 29.9527 22.0771 29.9521 18.973L29.9499 9.39768C29.9499 9.13269 29.801 8.8904 29.5648 8.77067V8.77067Z" fill="#00BDD3" stroke="#ECF2F7" stroke-width="0.4"/>
<path d="M14.4842 20.3456H15.7147V21.576C15.7147 22.3513 16.3455 22.9822 17.1208 22.9822H18.8786C19.6539 22.9822 20.2848 22.3513 20.2848 21.576V20.3456H21.5152C22.2905 20.3456 22.9214 19.7147 22.9214 18.9394V17.1816C22.9214 16.4063 22.2905 15.7754 21.5152 15.7754H20.2848V14.545C20.2848 13.7697 19.6539 13.1389 18.8786 13.1389H17.1208C16.3455 13.1389 15.7147 13.7697 15.7147 14.545V15.7754H14.4842C13.7089 15.7754 13.0781 16.4063 13.0781 17.1816V18.9394C13.0781 19.7147 13.7089 20.3456 14.4842 20.3456V20.3456ZM16.4177 17.1816C16.806 17.1816 17.1208 16.8668 17.1208 16.4785V14.5451L18.8786 14.545V16.4785C18.8786 16.8668 19.1934 17.1816 19.5817 17.1816H21.5152L21.5152 18.9394H19.5817C19.1934 18.9394 18.8786 19.2542 18.8786 19.6425L18.8786 21.576L17.1208 21.576V19.6425C17.1208 19.2542 16.806 18.9394 16.4177 18.9394L14.4843 18.9396L14.4842 17.1816H16.4177Z" fill="#00BDD3" stroke="#EDF2F6" stroke-width="0.4"/>
<path d="M9.5625 18.0604C9.5625 22.7126 13.3474 26.4975 17.9996 26.4975C22.6518 26.4975 26.4367 22.7126 26.4367 18.0604C26.4367 13.4082 22.6518 9.62329 17.9996 9.62329C13.3474 9.62329 9.5625 13.4082 9.5625 18.0604ZM17.9996 11.0295C21.8765 11.0295 25.0306 14.1835 25.0306 18.0604C25.0306 21.9373 21.8765 25.0913 17.9996 25.0913C14.1227 25.0913 10.9687 21.9373 10.9687 18.0604C10.9687 14.1835 14.1227 11.0295 17.9996 11.0295Z" fill="#00BDD3" stroke="#EDF2F6" stroke-width="0.4"/>
<path d="M12.3756 7.24872C12.5097 7.24872 12.6451 7.21047 12.765 7.13053L12.7655 7.13025C13.0886 6.91488 13.1757 6.47838 12.9603 6.15536C12.7449 5.83235 12.3082 5.74502 11.9851 5.96053C11.6619 6.17589 11.5746 6.61246 11.7901 6.93555C11.9254 7.13875 12.1484 7.24872 12.3756 7.24872Z" fill="#00BDD3"/>
</g>
<defs>
<clipPath id="clip0_247_1011">
<rect width="36" height="36" fill="white"/>
</clipPath>
</defs>
</svg>
