<svg width="9" height="9" viewBox="0 0 9 9" fill="none" xmlns="http://www.w3.org/2000/svg">
<path d="M5.37906 0.100006H3.61906C1.92506 0.100006 0.539062 1.48601 0.539062 3.18001V4.50001C0.539062 5.68801 1.23206 6.77701 2.29906 7.28301V8.75701C2.29906 8.88901 2.46406 8.95501 2.55206 8.85601L3.82806 7.58001H5.37906C7.07306 7.58001 8.45906 6.19401 8.45906 4.50001V3.18001C8.45906 1.48601 7.07306 0.100006 5.37906 0.100006ZM6.53406 5.87501L6.08306 6.31501C5.61006 6.77701 4.38906 6.24901 3.31106 5.14901C2.23306 4.04901 1.76006 2.81701 2.21106 2.35501L2.65106 1.91501C2.81606 1.75001 3.09106 1.76101 3.27806 1.92601L3.91606 2.58601C4.14706 2.81701 4.04806 3.21301 3.75106 3.30101C3.54206 3.36701 3.39906 3.59801 3.46506 3.80701C3.57506 4.29101 4.19106 4.90701 4.65306 5.02801C4.86206 5.07201 5.09306 4.96201 5.17006 4.75301C5.26906 4.45601 5.66506 4.36801 5.88506 4.59901L6.52306 5.25901C6.69906 5.41301 6.69906 5.68801 6.53406 5.87501ZM4.89506 2.19001C4.85106 2.19001 4.80706 2.19001 4.76306 2.20101C4.68606 2.21201 4.60906 2.14601 4.59806 2.06901C4.58706 1.99201 4.65306 1.91501 4.73006 1.90401C4.78506 1.89301 4.84006 1.89301 4.89506 1.89301C5.69806 1.89301 6.35806 2.55301 6.35806 3.35601C6.35806 3.41101 6.35806 3.46601 6.34706 3.52101C6.33606 3.59801 6.25906 3.66401 6.18206 3.65301C6.10506 3.64201 6.03906 3.56501 6.05006 3.48801C6.05006 3.44401 6.06106 3.40001 6.06106 3.35601C6.07206 2.71801 5.54406 2.19001 4.89506 2.19001ZM5.77506 3.36701C5.77506 3.44401 5.70906 3.51001 5.63206 3.51001C5.55506 3.51001 5.48906 3.44401 5.48906 3.36701C5.48906 3.04801 5.22506 2.78401 4.90606 2.78401C4.82906 2.78401 4.76306 2.71801 4.76306 2.64101C4.76306 2.56401 4.82906 2.49801 4.90606 2.49801C5.37906 2.48701 5.77506 2.88301 5.77506 3.36701ZM6.89706 3.84001C6.87506 3.91701 6.79806 3.97201 6.71006 3.95001C6.63306 3.92801 6.58906 3.85101 6.61106 3.77401C6.64406 3.64201 6.65506 3.51001 6.65506 3.36701C6.65506 2.39901 5.86306 1.60701 4.89506 1.60701C4.85106 1.60701 4.80706 1.60701 4.76306 1.60701C4.68606 1.60701 4.60906 1.55201 4.60906 1.47501C4.60906 1.39801 4.66406 1.32101 4.74106 1.32101C4.79606 1.32101 4.85106 1.31001 4.89506 1.31001C6.02806 1.31001 6.95206 2.23401 6.95206 3.36701C6.95206 3.52101 6.93006 3.68601 6.89706 3.84001Z" fill="#00BDD3"/>
</svg>
