<svg width="9" height="9" viewBox="0 0 9 9" fill="none" xmlns="http://www.w3.org/2000/svg">
<g clip-path="url(#clip0_247_946)">
<path d="M7.11693 1.66534C6.99647 1.66534 6.89844 1.76338 6.89844 1.88384C6.89844 2.0043 6.99647 2.10234 7.11693 2.10234C7.23741 2.10234 7.33543 2.00432 7.33543 1.88384C7.33543 1.76336 7.23741 1.66534 7.11693 1.66534Z" fill="#00BDD3"/>
<path d="M4.49954 2.56296C3.43146 2.56296 2.5625 3.43191 2.5625 4.5C2.5625 5.56808 3.43146 6.43705 4.49954 6.43705C5.56764 6.43705 6.4366 5.5681 6.4366 4.50001C6.4366 3.43193 5.56764 2.56296 4.49954 2.56296Z" fill="#00BDD3"/>
<path d="M6.53279 0H2.46721C1.10679 0 0 1.10679 0 2.46723V6.53279C0 7.89323 1.10679 9 2.46721 9H6.53279C7.89323 9 9 7.89321 9 6.53279V2.46723C9 1.10679 7.89323 0 6.53279 0ZM4.5 6.96853C3.13884 6.96853 2.03149 5.86116 2.03149 4.5C2.03149 3.13884 3.13886 2.0315 4.5 2.0315C5.86114 2.0315 6.96853 3.13886 6.96853 4.5C6.96853 5.86114 5.86114 6.96853 4.5 6.96853ZM7.11617 2.63384C6.70263 2.63384 6.36618 2.29739 6.36618 1.88385C6.36618 1.4703 6.70263 1.13384 7.11617 1.13384C7.52971 1.13384 7.86616 1.47029 7.86616 1.88383C7.86616 2.29737 7.52971 2.63384 7.11617 2.63384Z" fill="#00BDD3"/>
</g>
<defs>
<clipPath id="clip0_247_946">
<rect width="9" height="9" fill="white"/>
</clipPath>
</defs>
</svg>
